<mxfile host="app.diagrams.net" modified="2024-06-01T14:02:01.369Z" agent="Mozilla/5.0 (Windows NT 10.0; Win64; x64) AppleWebKit/537.36 (KHTML, like Gecko) Chrome/125.0.0.0 Safari/537.36" etag="ViQzWWiiube9JXgEK2As" version="24.4.13" type="device">
  <diagram name="Page-1" id="ODTfp_C9MVpimg8yev5f">
    <mxGraphModel dx="1290" dy="557" grid="1" gridSize="10" guides="1" tooltips="1" connect="1" arrows="1" fold="1" page="1" pageScale="1" pageWidth="1100" pageHeight="850" math="0" shadow="0">
      <root>
        <mxCell id="0" />
        <mxCell id="1" parent="0" />
        <mxCell id="6nvxU-jEX23zvmZGZKwC-1" value="" style="rounded=0;whiteSpace=wrap;html=1;" vertex="1" parent="1">
          <mxGeometry x="370" y="120" width="320" height="540" as="geometry" />
        </mxCell>
        <mxCell id="6nvxU-jEX23zvmZGZKwC-2" value="User" style="shape=umlActor;verticalLabelPosition=bottom;verticalAlign=top;html=1;outlineConnect=0;" vertex="1" parent="1">
          <mxGeometry x="250" y="330" width="30" height="60" as="geometry" />
        </mxCell>
        <mxCell id="6nvxU-jEX23zvmZGZKwC-3" value="Connect an&amp;nbsp;&lt;div&gt;external database&lt;/div&gt;" style="ellipse;whiteSpace=wrap;html=1;" vertex="1" parent="1">
          <mxGeometry x="475" y="190" width="110" height="70" as="geometry" />
        </mxCell>
        <mxCell id="6nvxU-jEX23zvmZGZKwC-4" value="Execute a query" style="ellipse;whiteSpace=wrap;html=1;" vertex="1" parent="1">
          <mxGeometry x="475" y="470" width="110" height="70" as="geometry" />
        </mxCell>
        <mxCell id="6nvxU-jEX23zvmZGZKwC-5" value="Update existing database connection" style="ellipse;whiteSpace=wrap;html=1;" vertex="1" parent="1">
          <mxGeometry x="475" y="280" width="110" height="70" as="geometry" />
        </mxCell>
        <mxCell id="6nvxU-jEX23zvmZGZKwC-6" value="" style="endArrow=none;html=1;rounded=0;entryX=0;entryY=0.5;entryDx=0;entryDy=0;exitX=1;exitY=0.3333333333333333;exitDx=0;exitDy=0;exitPerimeter=0;" edge="1" parent="1" source="6nvxU-jEX23zvmZGZKwC-2" target="6nvxU-jEX23zvmZGZKwC-3">
          <mxGeometry width="50" height="50" relative="1" as="geometry">
            <mxPoint x="280" y="280" as="sourcePoint" />
            <mxPoint x="570" y="380" as="targetPoint" />
          </mxGeometry>
        </mxCell>
        <mxCell id="6nvxU-jEX23zvmZGZKwC-7" value="" style="endArrow=none;html=1;rounded=0;entryX=0;entryY=0.5;entryDx=0;entryDy=0;exitX=1;exitY=0.3333333333333333;exitDx=0;exitDy=0;exitPerimeter=0;" edge="1" parent="1" source="6nvxU-jEX23zvmZGZKwC-2" target="6nvxU-jEX23zvmZGZKwC-5">
          <mxGeometry width="50" height="50" relative="1" as="geometry">
            <mxPoint x="280" y="280" as="sourcePoint" />
            <mxPoint x="440" y="245" as="targetPoint" />
          </mxGeometry>
        </mxCell>
        <mxCell id="6nvxU-jEX23zvmZGZKwC-8" value="" style="endArrow=none;html=1;rounded=0;exitX=1;exitY=0.3333333333333333;exitDx=0;exitDy=0;exitPerimeter=0;entryX=0;entryY=0.5;entryDx=0;entryDy=0;" edge="1" parent="1" source="6nvxU-jEX23zvmZGZKwC-2" target="6nvxU-jEX23zvmZGZKwC-4">
          <mxGeometry width="50" height="50" relative="1" as="geometry">
            <mxPoint x="520" y="540" as="sourcePoint" />
            <mxPoint x="570" y="490" as="targetPoint" />
          </mxGeometry>
        </mxCell>
        <mxCell id="6nvxU-jEX23zvmZGZKwC-9" value="Database System Manager" style="text;html=1;align=center;verticalAlign=middle;whiteSpace=wrap;rounded=0;" vertex="1" parent="1">
          <mxGeometry x="445" y="130" width="170" height="30" as="geometry" />
        </mxCell>
        <mxCell id="6nvxU-jEX23zvmZGZKwC-16" value="View Results of the executed query" style="ellipse;whiteSpace=wrap;html=1;" vertex="1" parent="1">
          <mxGeometry x="475" y="570" width="110" height="70" as="geometry" />
        </mxCell>
        <mxCell id="6nvxU-jEX23zvmZGZKwC-17" value="View summary of extracted metadata" style="ellipse;whiteSpace=wrap;html=1;" vertex="1" parent="1">
          <mxGeometry x="475" y="380" width="110" height="70" as="geometry" />
        </mxCell>
        <mxCell id="6nvxU-jEX23zvmZGZKwC-18" value="" style="endArrow=none;html=1;rounded=0;exitX=1;exitY=0.3333333333333333;exitDx=0;exitDy=0;exitPerimeter=0;entryX=0;entryY=0.5;entryDx=0;entryDy=0;" edge="1" parent="1" source="6nvxU-jEX23zvmZGZKwC-2" target="6nvxU-jEX23zvmZGZKwC-17">
          <mxGeometry width="50" height="50" relative="1" as="geometry">
            <mxPoint x="290" y="360" as="sourcePoint" />
            <mxPoint x="490" y="495" as="targetPoint" />
          </mxGeometry>
        </mxCell>
        <mxCell id="6nvxU-jEX23zvmZGZKwC-19" value="" style="endArrow=none;html=1;rounded=0;exitX=1;exitY=0.3333333333333333;exitDx=0;exitDy=0;exitPerimeter=0;entryX=0;entryY=0.5;entryDx=0;entryDy=0;" edge="1" parent="1" source="6nvxU-jEX23zvmZGZKwC-2" target="6nvxU-jEX23zvmZGZKwC-16">
          <mxGeometry width="50" height="50" relative="1" as="geometry">
            <mxPoint x="300" y="370" as="sourcePoint" />
            <mxPoint x="500" y="505" as="targetPoint" />
          </mxGeometry>
        </mxCell>
      </root>
    </mxGraphModel>
  </diagram>
</mxfile>
